<?xml version="1.0" encoding="utf-8"?>
<!-- Generator: Adobe Illustrator 27.5.0, SVG Export Plug-In . SVG Version: 6.00 Build 0)  -->
<svg version="1.1" id="Layer_1" xmlns="http://www.w3.org/2000/svg" xmlns:xlink="http://www.w3.org/1999/xlink" x="0px" y="0px"
	 viewBox="0 0 24 24" style="enable-background:new 0 0 24 24;" xml:space="preserve">
<style type="text/css">
	.st0{fill:#FFFFFF;}
</style>
<path class="st0" d="M12,0C5.4,0,0,5.4,0,12s5.4,12,12,12s12-5.4,12-12S18.6,0,12,0z M12,19c-0.7,0-1.4-0.1-2.1-0.3
	c0.3-0.5,0.7-1.2,0.9-1.8l0.4-1.7c0.2,0.4,0.9,0.8,1.6,0.8c2.1,0,3.6-1.9,3.6-4.4c0-2.3-1.9-4-4.3-4c-3,0-4.6,2-4.6,4.2
	c0,1,0.5,2.3,1.4,2.7c0.1,0.1,0.2,0,0.2-0.1l0.2-0.8c0-0.1,0-0.1,0-0.2c-0.3-0.4-0.5-1-0.5-1.6c0-1.5,1.2-3,3.2-3
	c1.7,0,2.9,1.2,2.9,2.8c0,1.9-1,3.2-2.2,3.2c-0.7,0-1.2-0.6-1-1.3c0.2-0.8,0.6-1.7,0.6-2.3c0-0.5-0.3-1-0.9-1
	c-0.7,0-1.3,0.7-1.3,1.7c0,0.6,0.2,1,0.2,1S9.6,16,9.5,16.5c-0.1,0.6-0.1,1.5,0,2C6.8,17.5,5,15,5,12c0-3.9,3.1-7,7-7s7,3.1,7,7
	S15.9,19,12,19z"/>
</svg>
